<?xml version="1.0" encoding="UTF-8" standalone="no"?><svg xmlns="http://www.w3.org/2000/svg" xmlns:xlink="http://www.w3.org/1999/xlink" contentStyleType="text/css" height="963px" preserveAspectRatio="none" style="width:1302px;height:963px;background:#FFFFFF;" version="1.1" viewBox="0 0 1302 963" width="1302px" zoomAndPan="magnify"><defs/><g><!--cluster UCLAHS--><g id="cluster_UCLAHS"><rect fill="none" height="154" rx="2.5" ry="2.5" style="stroke:#444444;stroke-width:1.0;stroke-dasharray:7.0,7.0;" width="195" x="1101" y="803"/><text fill="#444444" font-family="sans-serif" font-size="16" font-weight="bold" lengthAdjust="spacing" textLength="108" x="1144.5" y="819.8516">UCLA Health</text><text fill="#444444" font-family="sans-serif" font-size="12" font-weight="bold" lengthAdjust="spacing" textLength="62" x="1167.5" y="834.7637">[System]</text></g><!--cluster AWS--><g id="cluster_AWS"><rect fill="none" height="942" rx="2.5" ry="2.5" style="stroke:#444444;stroke-width:1.0;stroke-dasharray:7.0,7.0;" width="1062" x="7" y="7"/><text fill="#444444" font-family="sans-serif" font-size="16" font-weight="bold" lengthAdjust="spacing" textLength="41" x="517.5" y="23.8516">AWS</text><text fill="#444444" font-family="sans-serif" font-size="12" font-weight="bold" lengthAdjust="spacing" textLength="62" x="507" y="38.7637">[System]</text></g><!--cluster WebServer--><g id="cluster_WebServer"><rect fill="none" height="661.5" rx="2.5" ry="2.5" style="stroke:#444444;stroke-width:1.0;stroke-dasharray:7.0,7.0;" width="625" x="31" y="66"/><text fill="#444444" font-family="sans-serif" font-size="16" font-weight="bold" lengthAdjust="spacing" textLength="105" x="291" y="82.8516">Web Server</text><text fill="#444444" font-family="sans-serif" font-size="12" font-weight="bold" lengthAdjust="spacing" textLength="62" x="312.5" y="97.7637">[System]</text></g><!--cluster BackendApplication--><g id="cluster_BackendApplication"><rect fill="none" height="168" rx="2.5" ry="2.5" style="stroke:#444444;stroke-width:1.0;stroke-dasharray:7.0,7.0;" width="271" x="353" y="395"/><text fill="#444444" font-family="sans-serif" font-size="16" font-weight="bold" lengthAdjust="spacing" textLength="178" x="399.5" y="411.8516">Backend Application</text><text fill="#444444" font-family="sans-serif" font-size="12" font-weight="bold" lengthAdjust="spacing" textLength="62" x="457.5" y="426.7637">[System]</text></g><!--entity Splunk--><g id="elem_Splunk"><rect fill="#999999" height="71.2188" rx="2.5" ry="2.5" style="stroke:#8A8A8A;stroke-width:0.5;" width="128" x="1125" y="862"/><text fill="#FFFFFF" font-family="sans-serif" font-size="16" font-weight="bold" lengthAdjust="spacing" textLength="59" x="1159.5" y="886.8516">Splunk</text><text fill="#FFFFFF" font-family="sans-serif" font-size="14" lengthAdjust="spacing" textLength="4" x="1187" y="903.6201"> </text><text fill="#FFFFFF" font-family="sans-serif" font-size="14" lengthAdjust="spacing" textLength="55" x="1135" y="919.917">Logging</text><text fill="#FFFFFF" font-family="sans-serif" font-size="14" lengthAdjust="spacing" textLength="4" x="1190" y="919.917"> </text><text fill="#FFFFFF" font-family="sans-serif" font-size="14" lengthAdjust="spacing" textLength="49" x="1194" y="919.917">service</text></g><!--entity SSMConfiguration--><g id="elem_SSMConfiguration"><rect fill="#999999" height="87.5156" rx="2.5" ry="2.5" style="stroke:#8A8A8A;stroke-width:0.5;" width="193" x="672.5" y="632"/><text fill="#FFFFFF" font-family="sans-serif" font-size="16" font-weight="bold" lengthAdjust="spacing" textLength="38" x="687.5" y="656.8516">SSM</text><text fill="#FFFFFF" font-family="sans-serif" font-size="16" font-weight="bold" lengthAdjust="spacing" textLength="6" x="725.5" y="656.8516"> </text><text fill="#FFFFFF" font-family="sans-serif" font-size="16" font-weight="bold" lengthAdjust="spacing" textLength="119" x="731.5" y="656.8516">Configuration</text><text fill="#FFFFFF" font-family="sans-serif" font-size="14" lengthAdjust="spacing" textLength="4" x="767" y="673.6201"> </text><text fill="#FFFFFF" font-family="sans-serif" font-size="14" lengthAdjust="spacing" textLength="46" x="682.5" y="689.917">Simple</text><text fill="#FFFFFF" font-family="sans-serif" font-size="14" lengthAdjust="spacing" textLength="4" x="728.5" y="689.917"> </text><text fill="#FFFFFF" font-family="sans-serif" font-size="14" lengthAdjust="spacing" textLength="59" x="732.5" y="689.917">Systems</text><text fill="#FFFFFF" font-family="sans-serif" font-size="14" lengthAdjust="spacing" textLength="4" x="791.5" y="689.917"> </text><text fill="#FFFFFF" font-family="sans-serif" font-size="14" lengthAdjust="spacing" textLength="60" x="795.5" y="689.917">Manager</text><text fill="#FFFFFF" font-family="sans-serif" font-size="14" lengthAdjust="spacing" textLength="90" x="697.5" y="706.2139">configuration</text><text fill="#FFFFFF" font-family="sans-serif" font-size="14" lengthAdjust="spacing" textLength="4" x="787.5" y="706.2139"> </text><text fill="#FFFFFF" font-family="sans-serif" font-size="14" lengthAdjust="spacing" textLength="49" x="791.5" y="706.2139">service</text></g><!--entity Database--><g id="elem_Database"><path d="M901,646 C901,636 977,636 977,636 C977,636 1053,636 1053,646 L1053,706.2188 C1053,716.2188 977,716.2188 977,716.2188 C977,716.2188 901,716.2188 901,706.2188 L901,646 " fill="#1168BD" style="stroke:#3C7FC0;stroke-width:0.5;"/><path d="M901,646 C901,656 977,656 977,656 C977,656 1053,656 1053,646 " fill="none" style="stroke:#3C7FC0;stroke-width:0.5;"/><text fill="#FFFFFF" font-family="sans-serif" font-size="16" font-weight="bold" lengthAdjust="spacing" textLength="83" x="935.5" y="674.8516">Database</text><text fill="#FFFFFF" font-family="sans-serif" font-size="14" lengthAdjust="spacing" textLength="4" x="975" y="691.6201"> </text><text fill="#FFFFFF" font-family="sans-serif" font-size="14" lengthAdjust="spacing" textLength="75" x="911" y="707.917">Application</text><text fill="#FFFFFF" font-family="sans-serif" font-size="14" lengthAdjust="spacing" textLength="4" x="986" y="707.917"> </text><text fill="#FFFFFF" font-family="sans-serif" font-size="14" lengthAdjust="spacing" textLength="53" x="990" y="707.917">storage</text></g><!--entity CloudWatch--><g id="elem_CloudWatch"><rect fill="#999999" height="71.2188" rx="2.5" ry="2.5" style="stroke:#8A8A8A;stroke-width:0.5;" width="128" x="75" y="862"/><text fill="#FFFFFF" font-family="sans-serif" font-size="16" font-weight="bold" lengthAdjust="spacing" textLength="106" x="86" y="886.8516">CloudWatch</text><text fill="#FFFFFF" font-family="sans-serif" font-size="14" lengthAdjust="spacing" textLength="4" x="137" y="903.6201"> </text><text fill="#FFFFFF" font-family="sans-serif" font-size="14" lengthAdjust="spacing" textLength="55" x="85" y="919.917">Logging</text><text fill="#FFFFFF" font-family="sans-serif" font-size="14" lengthAdjust="spacing" textLength="4" x="140" y="919.917"> </text><text fill="#FFFFFF" font-family="sans-serif" font-size="14" lengthAdjust="spacing" textLength="49" x="144" y="919.917">service</text></g><!--entity Gunicorn--><g id="elem_Gunicorn"><rect fill="#B3B3B3" height="52.5938" rx="2.5" ry="2.5" style="stroke:#A6A6A6;stroke-width:0.5;" width="213" x="254.5" y="259"/><text fill="#FFFFFF" font-family="sans-serif" font-size="16" font-weight="bold" lengthAdjust="spacing" textLength="79" x="321.5" y="283.8516">Gunicorn</text><text fill="#FFFFFF" font-family="sans-serif" font-size="12" font-style="italic" lengthAdjust="spacing" textLength="48" x="264.5" y="298.7637">[Python</text><text fill="#FFFFFF" font-family="sans-serif" font-size="12" font-style="italic" lengthAdjust="spacing" textLength="4" x="312.5" y="298.7637"> </text><text fill="#FFFFFF" font-family="sans-serif" font-size="12" font-style="italic" lengthAdjust="spacing" textLength="31" x="316.5" y="298.7637">HTTP</text><text fill="#FFFFFF" font-family="sans-serif" font-size="12" font-style="italic" lengthAdjust="spacing" textLength="4" x="347.5" y="298.7637"> </text><text fill="#FFFFFF" font-family="sans-serif" font-size="12" font-style="italic" lengthAdjust="spacing" textLength="49" x="351.5" y="298.7637">request</text><text fill="#FFFFFF" font-family="sans-serif" font-size="12" font-style="italic" lengthAdjust="spacing" textLength="4" x="400.5" y="298.7637"> </text><text fill="#FFFFFF" font-family="sans-serif" font-size="12" font-style="italic" lengthAdjust="spacing" textLength="53" x="404.5" y="298.7637">handler]</text></g><!--entity NGINX--><g id="elem_NGINX"><rect fill="#B3B3B3" height="52.5938" rx="2.5" ry="2.5" style="stroke:#A6A6A6;stroke-width:0.5;" width="157" x="282.5" y="117"/><text fill="#FFFFFF" font-family="sans-serif" font-size="16" font-weight="bold" lengthAdjust="spacing" textLength="57" x="332.5" y="141.8516">NGINX</text><text fill="#FFFFFF" font-family="sans-serif" font-size="12" font-style="italic" lengthAdjust="spacing" textLength="36" x="292.5" y="156.7637">[HTTP</text><text fill="#FFFFFF" font-family="sans-serif" font-size="12" font-style="italic" lengthAdjust="spacing" textLength="4" x="328.5" y="156.7637"> </text><text fill="#FFFFFF" font-family="sans-serif" font-size="12" font-style="italic" lengthAdjust="spacing" textLength="49" x="332.5" y="156.7637">request</text><text fill="#FFFFFF" font-family="sans-serif" font-size="12" font-style="italic" lengthAdjust="spacing" textLength="4" x="381.5" y="156.7637"> </text><text fill="#FFFFFF" font-family="sans-serif" font-size="12" font-style="italic" lengthAdjust="spacing" textLength="44" x="385.5" y="156.7637">server]</text></g><!--entity rsyslog--><g id="elem_rsyslog"><rect fill="#B3B3B3" height="52.5938" rx="2.5" ry="2.5" style="stroke:#A6A6A6;stroke-width:0.5;" width="127" x="47.5" y="470"/><text fill="#FFFFFF" font-family="sans-serif" font-size="16" font-weight="bold" lengthAdjust="spacing" textLength="64" x="79" y="494.8516">rsyslog</text><text fill="#FFFFFF" font-family="sans-serif" font-size="12" font-style="italic" lengthAdjust="spacing" textLength="54" x="57.5" y="509.7637">[Logging</text><text fill="#FFFFFF" font-family="sans-serif" font-size="12" font-style="italic" lengthAdjust="spacing" textLength="4" x="111.5" y="509.7637"> </text><text fill="#FFFFFF" font-family="sans-serif" font-size="12" font-style="italic" lengthAdjust="spacing" textLength="49" x="115.5" y="509.7637">service]</text></g><!--entity CloudWatchAgent--><g id="elem_CloudWatchAgent"><rect fill="#999999" height="71.2188" rx="2.5" ry="2.5" style="stroke:#8A8A8A;stroke-width:0.5;" width="185" x="46.5" y="640.5"/><text fill="#FFFFFF" font-family="sans-serif" font-size="16" font-weight="bold" lengthAdjust="spacing" textLength="106" x="56.5" y="665.3516">CloudWatch</text><text fill="#FFFFFF" font-family="sans-serif" font-size="16" font-weight="bold" lengthAdjust="spacing" textLength="6" x="162.5" y="665.3516"> </text><text fill="#FFFFFF" font-family="sans-serif" font-size="16" font-weight="bold" lengthAdjust="spacing" textLength="53" x="168.5" y="665.3516">Agent</text><text fill="#FFFFFF" font-family="sans-serif" font-size="14" lengthAdjust="spacing" textLength="4" x="137" y="682.1201"> </text><text fill="#FFFFFF" font-family="sans-serif" font-size="14" lengthAdjust="spacing" textLength="25" x="92" y="698.417">Log</text><text fill="#FFFFFF" font-family="sans-serif" font-size="14" lengthAdjust="spacing" textLength="4" x="117" y="698.417"> </text><text fill="#FFFFFF" font-family="sans-serif" font-size="14" lengthAdjust="spacing" textLength="65" x="121" y="698.417">forwarder</text></g><!--entity SplunkAgent--><g id="elem_SplunkAgent"><rect fill="#999999" height="71.2188" rx="2.5" ry="2.5" style="stroke:#8A8A8A;stroke-width:0.5;" width="138" x="383" y="640.5"/><text fill="#FFFFFF" font-family="sans-serif" font-size="16" font-weight="bold" lengthAdjust="spacing" textLength="59" x="393" y="665.3516">Splunk</text><text fill="#FFFFFF" font-family="sans-serif" font-size="16" font-weight="bold" lengthAdjust="spacing" textLength="6" x="452" y="665.3516"> </text><text fill="#FFFFFF" font-family="sans-serif" font-size="16" font-weight="bold" lengthAdjust="spacing" textLength="53" x="458" y="665.3516">Agent</text><text fill="#FFFFFF" font-family="sans-serif" font-size="14" lengthAdjust="spacing" textLength="4" x="450" y="682.1201"> </text><text fill="#FFFFFF" font-family="sans-serif" font-size="14" lengthAdjust="spacing" textLength="25" x="405" y="698.417">Log</text><text fill="#FFFFFF" font-family="sans-serif" font-size="14" lengthAdjust="spacing" textLength="4" x="430" y="698.417"> </text><text fill="#FFFFFF" font-family="sans-serif" font-size="14" lengthAdjust="spacing" textLength="65" x="434" y="698.417">forwarder</text></g><!--entity BackendPythonApplication--><g id="elem_BackendPythonApplication"><rect fill="#438DD5" height="85.1875" rx="2.5" ry="2.5" style="stroke:#3C7FC0;stroke-width:0.5;" width="204" x="396" y="454"/><text fill="#FFFFFF" font-family="sans-serif" font-size="16" font-weight="bold" lengthAdjust="spacing" textLength="76" x="425.5" y="478.8516">Backend</text><text fill="#FFFFFF" font-family="sans-serif" font-size="16" font-weight="bold" lengthAdjust="spacing" textLength="6" x="501.5" y="478.8516"> </text><text fill="#FFFFFF" font-family="sans-serif" font-size="16" font-weight="bold" lengthAdjust="spacing" textLength="63" x="507.5" y="478.8516">Python</text><text fill="#FFFFFF" font-family="sans-serif" font-size="16" font-weight="bold" lengthAdjust="spacing" textLength="96" x="450" y="497.4766">Application</text><text fill="#FFFFFF" font-family="sans-serif" font-size="12" font-style="italic" lengthAdjust="spacing" textLength="28" x="406" y="512.3887">[The</text><text fill="#FFFFFF" font-family="sans-serif" font-size="12" font-style="italic" lengthAdjust="spacing" textLength="4" x="434" y="512.3887"> </text><text fill="#FFFFFF" font-family="sans-serif" font-size="12" font-style="italic" lengthAdjust="spacing" textLength="69" x="438" y="512.3887">application</text><text fill="#FFFFFF" font-family="sans-serif" font-size="12" font-style="italic" lengthAdjust="spacing" textLength="4" x="507" y="512.3887"> </text><text fill="#FFFFFF" font-family="sans-serif" font-size="12" font-style="italic" lengthAdjust="spacing" textLength="79" x="511" y="512.3887">coordinating</text><text fill="#FFFFFF" font-family="sans-serif" font-size="12" font-style="italic" lengthAdjust="spacing" textLength="67" x="429.5" y="526.3574">MoPepGen</text><text fill="#FFFFFF" font-family="sans-serif" font-size="12" font-style="italic" lengthAdjust="spacing" textLength="4" x="496.5" y="526.3574"> </text><text fill="#FFFFFF" font-family="sans-serif" font-size="12" font-style="italic" lengthAdjust="spacing" textLength="66" x="500.5" y="526.3574">execution]</text></g><!--link BackendApplication to Database--><g id="link_BackendApplication_Database"><path d="M367.9012,563.2459 C368.8886,565.2482 369.9843,567.1869 371.199,569.0417 C373.6284,572.7513 376.5338,576.125 380,579 C387.92,585.57 554.76,586.06 565,587 C707.14,600.1 746.01,591.89 883,632 C886.29,632.96 889.62,634.02 892.96,635.16 " fill="none" id="BackendApplication-to-Database" style="stroke:#666666;stroke-width:1.0;"/><polygon fill="#666666" points="900.74,637.94,894.2098,632.4304,892.1972,638.0827,900.74,637.94" style="stroke:#666666;stroke-width:1.0;"/><text fill="#666666" font-family="sans-serif" font-size="12" font-weight="bold" lengthAdjust="spacing" textLength="35" x="748" y="599.1387">Uses</text></g><!--link BackendApplication to SSMConfiguration--><g id="link_BackendApplication_SSMConfiguration"><path d="M368.5972,563.0359 C368.6577,563.1629 368.7186,563.2897 368.7799,563.4162 C368.9026,563.6693 369.0268,563.9215 369.1526,564.1728 C369.4042,564.6754 369.6623,565.1742 369.927,565.669 C370.4564,566.6585 371.0122,567.632 371.5957,568.5868 C373.9294,572.4063 376.705,575.9288 380,579 C388.23,586.67 418.92,585.01 430,587 C530.81,605.09 557.57,603.69 656,632 C658.84,632.82 661.71,633.67 664.6,634.56 " fill="none" id="BackendApplication-to-SSMConfiguration" style="stroke:#666666;stroke-width:1.0;"/><polygon fill="#666666" points="672.27,636.99,665.548,631.716,663.7377,637.4363,672.27,636.99" style="stroke:#666666;stroke-width:1.0;"/><text fill="#666666" font-family="sans-serif" font-size="12" font-weight="bold" lengthAdjust="spacing" textLength="35" x="521" y="599.1387">Uses</text></g><!--link NGINX to Gunicorn--><g id="link_NGINX_Gunicorn"><path d="M361,170.18 C361,192.87 361,226.13 361,250.93 " fill="none" id="NGINX-to-Gunicorn" style="stroke:#666666;stroke-width:1.0;"/><polygon fill="#666666" points="361,258.98,364,250.98,358,250.98,361,258.98" style="stroke:#666666;stroke-width:1.0;"/><text fill="#666666" font-family="sans-serif" font-size="12" font-weight="bold" lengthAdjust="spacing" textLength="67" x="362" y="212.1387">Forwards</text><text fill="#666666" font-family="sans-serif" font-size="12" font-weight="bold" lengthAdjust="spacing" textLength="4" x="429" y="212.1387"> </text><text fill="#666666" font-family="sans-serif" font-size="12" font-weight="bold" lengthAdjust="spacing" textLength="35" x="433" y="212.1387">HTTP</text><text fill="#666666" font-family="sans-serif" font-size="12" font-weight="bold" lengthAdjust="spacing" textLength="64" x="383" y="226.1074">requests</text></g><!--link Gunicorn to BackendApplication--><g id="link_Gunicorn_BackendApplication"><path d="M361,312.13 C361,325.8625 361,343.9412 361,363.3955 C361,373.1226 361,383.1936 361,393.2371 C361,393.5509 361,393.8647 361,394.1785 " fill="none" id="Gunicorn-to-BackendApplication" style="stroke:#666666;stroke-width:1.0;"/><polygon fill="#666666" points="361,394.1785,364,386.1785,358,386.1785,361,394.1785" style="stroke:#666666;stroke-width:1.0;"/><text fill="#666666" font-family="sans-serif" font-size="12" font-weight="bold" lengthAdjust="spacing" textLength="63" x="362" y="354.1387">Executes</text><text fill="#666666" font-family="sans-serif" font-size="12" font-weight="bold" lengthAdjust="spacing" textLength="4" x="425" y="354.1387"> </text><text fill="#666666" font-family="sans-serif" font-size="12" font-weight="bold" lengthAdjust="spacing" textLength="35" x="429" y="354.1387">HTTP</text><text fill="#666666" font-family="sans-serif" font-size="12" font-weight="bold" lengthAdjust="spacing" textLength="56" x="385" y="368.1074">request</text></g><!--reverse link rsyslog to BackendApplication--><g id="link_rsyslog_BackendApplication"><path d="M183.16,496.5 C218.28,496.5 260.225,496.5 294.5575,496.5 C311.7238,496.5 326.9869,496.5 338.5422,496.5 C344.3198,496.5 349.1705,496.5 352.8687,496.5 " fill="none" id="rsyslog-backto-BackendApplication" style="stroke:#666666;stroke-width:1.0;"/><polygon fill="#666666" points="174.73,496.5,182.73,499.5,182.73,493.5,174.73,496.5" style="stroke:#666666;stroke-width:1.0;"/><text fill="#666666" font-family="sans-serif" font-size="12" font-weight="bold" lengthAdjust="spacing" textLength="47" x="192.57" y="490.6387">Writes</text><text fill="#666666" font-family="sans-serif" font-size="12" font-weight="bold" lengthAdjust="spacing" textLength="4" x="239.57" y="490.6387"> </text><text fill="#666666" font-family="sans-serif" font-size="12" font-weight="bold" lengthAdjust="spacing" textLength="30" x="243.57" y="490.6387">logs</text><text fill="#666666" font-family="sans-serif" font-size="12" font-weight="bold" lengthAdjust="spacing" textLength="4" x="273.57" y="490.6387"> </text><text fill="#666666" font-family="sans-serif" font-size="12" font-weight="bold" lengthAdjust="spacing" textLength="15" x="277.57" y="490.6387">to</text><text fill="#666666" font-family="sans-serif" font-size="12" font-weight="bold" lengthAdjust="spacing" textLength="4" x="292.57" y="490.6387"> </text><text fill="#666666" font-family="sans-serif" font-size="12" font-weight="bold" lengthAdjust="spacing" textLength="46" x="296.57" y="490.6387">syslog</text></g><!--reverse link rsyslog to CloudWatchAgent--><g id="link_rsyslog_CloudWatchAgent"><path d="M116.33,531.31 C121.26,562.55 128.55,608.78 133.53,640.31 " fill="none" id="rsyslog-backto-CloudWatchAgent" style="stroke:#666666;stroke-width:1.0;"/><polygon fill="#666666" points="115.07,523.31,113.3497,531.679,119.2768,530.7466,115.07,523.31" style="stroke:#666666;stroke-width:1.0;"/><text fill="#666666" font-family="sans-serif" font-size="12" font-weight="bold" lengthAdjust="spacing" textLength="44" x="128" y="599.1387">Reads</text><text fill="#666666" font-family="sans-serif" font-size="12" font-weight="bold" lengthAdjust="spacing" textLength="4" x="172" y="599.1387"> </text><text fill="#666666" font-family="sans-serif" font-size="12" font-weight="bold" lengthAdjust="spacing" textLength="30" x="176" y="599.1387">logs</text></g><!--reverse link rsyslog to SplunkAgent--><g id="link_rsyslog_SplunkAgent"><path d="M153.42,527.72 C185.59,549.88 231.4,579.84 274,602 C308.82,620.11 349.17,636.97 382.65,649.92 " fill="none" id="rsyslog-backto-SplunkAgent" style="stroke:#666666;stroke-width:1.0;"/><polygon fill="#666666" points="146.77,523.11,151.6415,530.1292,155.0556,525.1952,146.77,523.11" style="stroke:#666666;stroke-width:1.0;"/><text fill="#666666" font-family="sans-serif" font-size="12" font-weight="bold" lengthAdjust="spacing" textLength="44" x="275" y="599.1387">Reads</text><text fill="#666666" font-family="sans-serif" font-size="12" font-weight="bold" lengthAdjust="spacing" textLength="4" x="319" y="599.1387"> </text><text fill="#666666" font-family="sans-serif" font-size="12" font-weight="bold" lengthAdjust="spacing" textLength="30" x="323" y="599.1387">logs</text></g><!--link CloudWatchAgent to CloudWatch--><g id="link_CloudWatchAgent_CloudWatch"><path d="M139,711.78 C139,750.23 139,812.2 139,853.63 " fill="none" id="CloudWatchAgent-to-CloudWatch" style="stroke:#666666;stroke-width:1.0;"/><polygon fill="#666666" points="139,861.88,142,853.88,136,853.88,139,861.88" style="stroke:#666666;stroke-width:1.0;"/><text fill="#666666" font-family="sans-serif" font-size="12" font-weight="bold" lengthAdjust="spacing" textLength="44" x="140" y="762.1387">Reads</text><text fill="#666666" font-family="sans-serif" font-size="12" font-weight="bold" lengthAdjust="spacing" textLength="4" x="184" y="762.1387"> </text><text fill="#666666" font-family="sans-serif" font-size="12" font-weight="bold" lengthAdjust="spacing" textLength="27" x="188" y="762.1387">and</text><text fill="#666666" font-family="sans-serif" font-size="12" font-weight="bold" lengthAdjust="spacing" textLength="4" x="215" y="762.1387"> </text><text fill="#666666" font-family="sans-serif" font-size="12" font-weight="bold" lengthAdjust="spacing" textLength="64" x="219" y="762.1387">forwards</text><text fill="#666666" font-family="sans-serif" font-size="12" font-weight="bold" lengthAdjust="spacing" textLength="30" x="196.5" y="776.1074">logs</text></g><!--link BackendApplication to UCLAHS--><g id="link_BackendApplication_UCLAHS"><path d="M367.5795,563.0367 C367.6409,563.1617 367.7027,563.2865 367.7649,563.411 C368.7608,565.4032 369.867,567.3294 371.0944,569.1688 C373.5492,572.8478 376.4888,576.18 380,579 C394.92,590.99 1051.36,579.57 1069,587 C1184.86,635.78 1211.11,675.42 1269,787 C1270.3994,789.6975 1271.6985,792.4775 1272.9043,795.3198 C1273.5073,796.7409 1274.0869,798.1775 1274.6441,799.6272 C1274.9227,800.352 1275.1957,801.08 1275.4632,801.8111 C1275.5969,802.1766 1275.7293,802.5428 1275.8603,802.9097 " fill="none" id="BackendApplication-to-UCLAHS" style="stroke:#666666;stroke-width:1.0;"/><polygon fill="#666666" points="1275.8603,802.9097,1275.9955,794.3668,1270.3449,796.3844,1275.8603,802.9097" style="stroke:#666666;stroke-width:1.0;"/><text fill="#666666" font-family="sans-serif" font-size="12" font-weight="bold" lengthAdjust="spacing" textLength="35" x="1241" y="680.6387">Uses</text></g><!--link SplunkAgent to Splunk--><g id="link_SplunkAgent_Splunk"><path d="M486.77,711.78 C498.07,721.08 511.26,730.05 525,735.5 C562.3,750.31 665.04,746.36 705,750 C745.49,753.69 1031.89,770.41 1069,787 C1103.3,802.34 1134.39,831.36 1156.33,855.68 " fill="none" id="SplunkAgent-to-Splunk" style="stroke:#666666;stroke-width:1.0;"/><polygon fill="#666666" points="1161.71,861.75,1158.6527,853.7717,1154.1606,857.7492,1161.71,861.75" style="stroke:#666666;stroke-width:1.0;"/><text fill="#666666" font-family="sans-serif" font-size="12" font-weight="bold" lengthAdjust="spacing" textLength="44" x="1028" y="762.1387">Reads</text><text fill="#666666" font-family="sans-serif" font-size="12" font-weight="bold" lengthAdjust="spacing" textLength="4" x="1072" y="762.1387"> </text><text fill="#666666" font-family="sans-serif" font-size="12" font-weight="bold" lengthAdjust="spacing" textLength="27" x="1076" y="762.1387">and</text><text fill="#666666" font-family="sans-serif" font-size="12" font-weight="bold" lengthAdjust="spacing" textLength="4" x="1103" y="762.1387"> </text><text fill="#666666" font-family="sans-serif" font-size="12" font-weight="bold" lengthAdjust="spacing" textLength="64" x="1107" y="762.1387">forwards</text><text fill="#666666" font-family="sans-serif" font-size="12" font-weight="bold" lengthAdjust="spacing" textLength="30" x="1084.5" y="776.1074">logs</text></g><!--SRC=[hLJBRjim4BphAnXVwW1r1AJjfJT7Lk80VY6ow_PaqD9Q4aoJ2aarCOByUrTloPA20gqF2RNScPtb3dcbD9LQnNlY2du8VSEu2hdBOWz8e7Malfkcf2ytVgY3U1yha9YcWUiRLvpCY56kunCRAUsnS6zQNqUh9BIPpymJLHeaXdOM8cZ8GTv4c6jC7oVspbdRJ_Po_Mjb3w-nf0S7J20J-yUZjLmuVr5Qnn7rv9TAGeYxemDcZ5GaGmsgKE31xsHFtLQT5NNC0wFgk1Coz4DEMQQldHK9fNq9whatG_P2ppeGFDijsxnVBjRZhUqiv_P_xJIDqHTGuWIZRvMQMZqpOLSNQklxJBZ7GYvm3urX6CuPwK-xEn5pZyhpS6FDnbFdCnaa2p85odGmk2Pl1i5Vdco_wg4JiPWVCIzR370r4puUjKzG1Ku51jV6Uvj_l4t8yMz9-WdT6JEFx87OrYqHajWuEHswv0ueHmkpOxruoRI5lOELG28VhadsKT9sGUweUyJ6nr74GfVgK734va5IYoRTh0CWj0gXI24zT99EMfoB5KGFm0cyWXkda7hTv5VUZABgAhLBT-rixvybb0BUZPQCT6g3XvYZnMHANr_d0gRhzOf8U8v1QH9Gxh7aH7l85W-FYv-8JVyd90sqoiVH0vRgh9Zm4PMlkXrqCSa4QJ4HUrkgtM3iupr2M1KXQIYd8WSXNwZq6YfQ5Yv8ig-F2TvRjy2PM-dJ6ijYf1WYZLX2veIdY46EL6HEEVL1vizoddVHTPOxsGydLDCzLO0qnJAXh7c5A2qa4ZQG5sVLEARkiqx1Jy0whqbDnKQ1oalrPNUSImrLGdC75KR4hFlin5N3YVLgLMxdPRRJom1DVAsttGmEkbDoPSXj-l0I_5142vBRivImsqHj3rRe9w1U1cv26cxxEBrDtvXZ1i7BMVYpnEE3spUHwbtFvf3aDIIL3tel_Hy0]--></g></svg>